<svg aria-hidden="true" style="position: absolute; width: 0; height: 0; overflow: hidden;" version="1.1" xmlns="http://www.w3.org/2000/svg" xmlns:xlink="http://www.w3.org/1999/xlink">
<defs>
<symbol id="icon-check" viewBox="0 0 32 32">
<path fill="#fefeff" style="fill: var(--color1, #fefeff)" d="M26.731 8.469c0.3 0.3 0.469 0.707 0.469 1.131s-0.169 0.831-0.469 1.131l-12.8 12.8c-0.3 0.3-0.707 0.468-1.131 0.468s-0.831-0.169-1.131-0.468l-6.4-6.4c-0.291-0.302-0.453-0.706-0.449-1.125s0.172-0.821 0.469-1.117c0.297-0.297 0.698-0.465 1.117-0.469s0.824 0.158 1.125 0.449l5.269 5.269 11.669-11.669c0.3-0.3 0.707-0.468 1.131-0.468s0.831 0.169 1.131 0.468z"></path>
</symbol>
<symbol id="icon-menu-01" viewBox="0 0 32 32">
<path fill="none" stroke="currentColor"  stroke-linejoin="round" stroke-linecap="round" stroke-miterlimit="4" stroke-width="2" d="M4 16h24M4 8h24M4 24h24"></path>
</symbol>
<symbol id="icon-logo" viewBox="0 0 252 32">
<path fill="#fefeff" style="fill: var(--color1, #fefeff)" d="M95.584 10.331h-22.281v4.051h22.281c-0.052 0.159 0.162 0.351 0.162 0.406v6.479c0 0.016-0.226 0.244-0.242 0.244h-22.201v4.051h22.281v7.289h-29.387c0.052-0.159-0.161-0.351-0.161-0.406v-28.999c0-0.016 0.226-0.244 0.242-0.244h29.225c0.016 0 0.242 0.224 0.242 0.244v6.479c0 0.052-0.213 0.247-0.162 0.406z"></path>
<path fill="#fefeff" style="fill: var(--color1, #fefeff)" d="M247.764 3.201c1.564 0.221 3.454 2.022 3.91 3.527 0.42 1.385 0.382 8.631 0.19 10.306-0.226 1.967-2.158 4.126-4.138 4.434-0.592 0.091-1.2-0.039-1.742 0.039-0.222 0.033-0.278-0.091-0.238 0.244l5.65 11.099h-7.508l-6.298-11.339h-7.186v10.936c0 0.052-0.214 0.247-0.162 0.406h-6.944v-29.652h24.466zM244.776 10.331h-14.368v4.051h14.368v-4.051z"></path>
<path fill="#fefeff" style="fill: var(--color1, #fefeff)" d="M177.608 12.922h-6.944v-2.591h-16.307v15.228h16.307v-2.591h6.944c0.601 4.145 0.313 9.22-4.782 9.863-6.582-0.312-13.648 0.484-20.171 0.026-3.318-0.231-5.199-2.308-5.409-5.588-0.404-6.255 0.3-12.962 0.029-19.265 0.226-2.373 2.142-4.584 4.575-4.805 6.766-0.621 14.462 0.484 21.325 0 4.795 0.79 5.002 5.787 4.433 9.727v-0.003z"></path>
<path fill="#fefeff" style="fill: var(--color1, #fefeff)" d="M29.548 10.331h-22.443v4.051h22.443c-0.052 0.159 0.162 0.351 0.162 0.406v6.479c0 0.016-0.226 0.244-0.242 0.244h-22.12c-0.016 0-0.242 0.224-0.242 0.244v11.096h-6.863c-0.016 0-0.242-0.224-0.242-0.244v-29.161c0-0.016 0.226-0.244 0.242-0.244h29.225c0.016 0 0.242 0.224 0.242 0.244v6.479c0 0.052-0.213 0.247-0.162 0.406z"></path>
<path fill="#fefeff" style="fill: var(--color1, #fefeff)" d="M109.148 3.201c1.961 3.183 4.165 6.222 6.378 9.23l6.621-9.23h8.478l-10.12 14.821 10.12 14.824h-8.478l-6.621-9.392-6.62 9.392h-8.236c-0.019 0-0.323-0.234-0.165-0.322l10.068-14.633-10.145-14.691h8.721z"></path>
<path fill="#fefeff" style="fill: var(--color1, #fefeff)" d="M182.694 32.847l13.396-29.49 8.084-0.169 0.252 0.114 13.962 29.217c0.142 0.101-0.152 0.332-0.176 0.332h-7.508l-10.414-21.222-10.091 21.222-7.506-0.003z"></path>
<path fill="#fefeff" style="fill: var(--color1, #fefeff)" d="M41.496 3.201v22.357h19.619c0.016 0 0.242 0.224 0.242 0.244v6.804c0 0.016-0.226 0.244-0.242 0.244h-26.721v-29.649h7.102z"></path>
<path fill="#fefeff" style="fill: var(--color1, #fefeff)" d="M135.466 32.847v-29.646h6.863c0.016 0 0.242 0.224 0.242 0.244v29.158c0 0.016-0.226 0.244-0.242 0.244h-6.863z"></path>
</symbol>
<symbol id="icon-log-in-02" viewBox="0 0 32 32">
<path fill="none" stroke="currentColor" stroke-linejoin="round" stroke-linecap="round" stroke-miterlimit="4" stroke-width="2" d="M8 22.667c0 1.24 0 1.86 0.136 2.369 0.37 1.38 1.448 2.459 2.828 2.828 0.509 0.136 1.129 0.136 2.369 0.136h8.267c2.24 0 3.36 0 4.216-0.436 0.753-0.383 1.365-0.995 1.748-1.748 0.436-0.856 0.436-1.976 0.436-4.216v-11.2c0-2.24 0-3.36-0.436-4.216-0.383-0.753-0.995-1.365-1.748-1.748-0.856-0.436-1.976-0.436-4.216-0.436h-8.267c-1.24 0-1.86 0-2.369 0.136-1.38 0.37-2.459 1.448-2.828 2.828-0.136 0.509-0.136 1.129-0.136 2.369M16 10.667l5.333 5.333M21.333 16l-5.333 5.333M21.333 16h-17.333"></path>
</symbol>
<symbol id="icon-phone" viewBox="0 0 32 32">
<path fill="none" stroke="currentColor" stroke-linejoin="round" stroke-linecap="round" stroke-miterlimit="4" stroke-width="2" d="M11.174 11.804c0.928 1.933 2.193 3.744 3.795 5.346s3.414 2.867 5.347 3.795c0.166 0.080 0.249 0.12 0.355 0.15 0.374 0.109 0.833 0.031 1.149-0.196 0.089-0.064 0.165-0.14 0.318-0.292 0.466-0.466 0.699-0.699 0.934-0.852 0.884-0.575 2.023-0.575 2.907 0 0.234 0.152 0.467 0.385 0.934 0.852l0.26 0.26c0.709 0.709 1.063 1.063 1.255 1.443 0.383 0.757 0.383 1.65 0 2.407-0.192 0.38-0.547 0.735-1.255 1.443l-0.21 0.21c-0.706 0.706-1.059 1.059-1.539 1.329-0.533 0.299-1.36 0.514-1.971 0.513-0.551-0.002-0.927-0.108-1.679-0.322-4.045-1.148-7.861-3.314-11.045-6.498s-5.35-7.001-6.498-11.045c-0.214-0.753-0.32-1.129-0.322-1.679-0.002-0.611 0.213-1.438 0.513-1.971 0.27-0.48 0.623-0.833 1.329-1.539l0.21-0.21c0.709-0.709 1.063-1.063 1.443-1.255 0.757-0.383 1.65-0.383 2.407 0 0.38 0.192 0.735 0.547 1.443 1.255l0.26 0.26c0.466 0.466 0.699 0.699 0.852 0.934 0.575 0.884 0.575 2.023 0 2.907-0.152 0.234-0.385 0.467-0.852 0.934-0.152 0.152-0.229 0.229-0.292 0.318-0.227 0.317-0.305 0.776-0.196 1.149 0.031 0.105 0.071 0.188 0.15 0.355z"></path>
</symbol>
<symbol id="icon-Icon" viewBox="0 0 70 32">
<path fill="none" stroke="currentColor" stroke-linejoin="round" stroke-linecap="round" stroke-miterlimit="4" stroke-width="6.4" d="M54.969 3.2c16.307 0 16.307 25.6 0 25.6-16.304 0-22.826-25.6-40.765-25.6-14.672 0-14.672 25.6 0 25.6 17.939 0 24.461-25.6 40.768-25.6h-0.004z"></path>
</symbol>
<symbol id="icon-Icon_-additional-driver" viewBox="0 0 32 32">
<path fill="#fefeff" style="fill: var(--color1, #fefeff)" d="M14.032 12.257c0.516 0.104 1.026 0.155 1.527 0.155 1.758 0 3.387-0.63 4.614-1.818 1.84-1.779 2.414-4.397 1.463-6.668-0.795-1.9-2.652-3.351-4.846-3.789-2.033-0.405-4.083 0.1-5.626 1.386-1.937 1.616-2.694 4.203-1.927 6.592 0.693 2.158 2.44 3.667 4.795 4.142h0.001zM11.689 5.879c0.108-1.413 1.116-2.715 2.51-3.241 0.432-0.163 0.873-0.244 1.311-0.244 0.765 0 1.523 0.245 2.216 0.727 1.195 0.832 1.779 2.272 1.525 3.761-0.235 1.37-1.151 2.46-2.451 2.916-1.455 0.51-2.566 0.118-3.241-0.302-1.225-0.761-1.977-2.215-1.869-3.617h-0.001z"></path>
<path fill="#fefeff" style="fill: var(--color1, #fefeff)" d="M19.758 13.757h-8.458c-3.636 0-6.594 2.967-6.594 6.614v3.152c0 0.775 0.649 1.404 1.449 1.404h1.745c0.098 2.050 1.072 3.961 2.721 5.304 1.418 1.156 3.176 1.77 4.984 1.77 0.499 0 1.002-0.047 1.502-0.142 3.46-0.658 6.009-3.533 6.213-6.929 0.069-0.002 0.141-0.002 0.212-0.002h0.139c0.074 0 0.15 0.001 0.226 0.003 0.049 0.001 0.098 0.001 0.148 0.002 0-0.001-0.001-0.003-0.002-0.005h0.858c0.801 0 1.449-0.628 1.449-1.404v-3.152c0-3.646-2.958-6.613-6.594-6.613v-0.001zM9.073 20.522c-0.344 0.533-0.566 1.054-0.783 1.597h-0.685v-1.749c0-2.099 1.658-3.806 3.695-3.806h8.458c2.038 0 3.695 1.707 3.695 3.806v1.749h-0.549c-0.548-1.676-1.815-3.177-3.491-4.1-1.729-0.952-3.752-1.218-5.695-0.748-1.946 0.47-3.596 1.624-4.645 3.251zM20.359 23.227h-2.172c-0.485-0.936-1.464-1.524-2.586-1.524s-2.1 0.588-2.585 1.524h-2.295c0.291-1.015 0.906-1.923 1.737-2.549 1.243-0.936 2.838-1.271 4.376-0.917 1.655 0.38 3.062 1.69 3.591 3.256-0.027 0.068-0.049 0.137-0.066 0.209v0.001zM14.249 29.255c-1.717-0.49-3.076-1.82-3.535-3.463h2.284c0.285 0.59 0.796 0.976 1.251 1.239v2.224h-0.001zM15.801 24.673c-0.018 0.028-0.067 0.103-0.272 0.079-0.156-0.019-0.174-0.165-0.175-0.228 0-0.067 0.016-0.224 0.193-0.249 0.179-0.025 0.226 0.045 0.246 0.074 0.060 0.090 0.063 0.235 0.006 0.324l0.001-0.001zM16.955 29.253v-2.216c0.453-0.255 0.962-0.636 1.251-1.243h2.285c-0.456 1.634-1.815 2.963-3.536 3.46v-0.001z"></path>
</symbol>
<symbol id="icon-icon_-Baby-seat2" viewBox="0 0 32 32">
<path fill="#fefeff" style="fill: var(--color1, #fefeff)" d="M9.687 8.912c1.407 0 2.824-0.659 3.723-2.147 1.609-2.659-0.046-6.367-3.134-6.738-0.147-0.018-0.389-0.025-0.632-0.025-0.257 0-0.517 0.010-0.673 0.025-1.967 0.211-3.662 2.138-3.792 4.091-0.196 2.931 2.143 4.794 4.509 4.794z"></path>
<path fill="#fefeff" style="fill: var(--color1, #fefeff)" d="M23.426 18.188c-1.046 0-2.206 0.287-3.105 0.513-1.558 0.39-3.799 1.398-5.459 1.398-0.176 0-0.345-0.011-0.507-0.036-3.539-0.539-3.63-4.23-4.655-6.939-0.419-1.105-1.276-3.297-2.696-3.297-0.074 0-0.15 0.006-0.226 0.018-1.46 0.233-2.759 1.817-3.309 3.108-1.995 4.678-0.097 11.474 3.814 14.653-0.151 1.305-0.425 2.607-0.485 3.919 0.033 0.202 0.244 0.463 0.459 0.475h12.503c0.35-0.004 0.536-0.277 0.583-0.601l-0.425-3.107c0.603-0.367 1.253-0.642 1.854-1.016 2.305-1.431 4.619-3.925 4.35-6.856-0.16-1.747-1.332-2.234-2.694-2.234l-0.001 0.003zM20.439 25.112c-0.225 0.139-0.494 0.279-0.78 0.425-0.321 0.166-0.686 0.353-1.054 0.577l-1.425 0.867 0.227 1.658 0.112 0.816h-7.935c0.002-0.016 0.005-0.030 0.007-0.046 0.074-0.487 0.148-0.991 0.209-1.509l0.161-1.391-1.084-0.881c-1.475-1.199-2.666-3.183-3.268-5.444-0.603-2.263-0.535-4.533 0.188-6.228 0.223-0.525 0.606-1.008 0.929-1.303 0.152 0.278 0.351 0.708 0.603 1.376 0.183 0.486 0.344 1.055 0.513 1.657 0.352 1.253 0.752 2.675 1.546 3.92 1.067 1.671 2.609 2.673 4.585 2.973 0.282 0.042 0.581 0.064 0.887 0.064 1.529 0 3.143-0.535 4.567-1.007 0.561-0.187 1.092-0.362 1.505-0.465 0.737-0.184 1.746-0.438 2.492-0.438 0.068 0 0.127 0.003 0.176 0.006 0.098 1.714-1.633 3.422-3.164 4.372l0.002 0.001z"></path>
<path fill="#fefeff" style="fill: var(--color1, #fefeff)" d="M13.168 10.205c-0.864 0.034-1.842 0.492-2.429 1.125l-0.017 0.080c0.37 0.861 0.694 1.742 0.986 2.633 0.537 1.638 0.678 3.884 2.66 4.385 1.421 0.359 3.283-0.816 4.712-1.038l0.149-0.103-1.983-3.861 4.937-3.722c1.437-1.512 0.272-3.999-1.784-3.853-0.466 0.033-0.794 0.202-1.177 0.442-0.763 0.479-5.093 3.968-5.429 3.976-0.174 0.004-0.38-0.074-0.624-0.064h-0.001z"></path>
<path fill="#fefeff" style="fill: var(--color1, #fefeff)" d="M29.86 16.104c-0.502-0.411-0.923-0.468-1.534-0.582-1.451-0.271-3.070-0.498-4.539-0.687-0.408-0.052-0.765-0.122-1.124-0.122-0.304 0-0.611 0.051-0.949 0.206-0.863 0.396-1.18 1.35-1.616 2.124 0.775-0.061 1.553-0.316 2.339-0.399 0.303-0.031 0.611-0.050 0.919-0.050 1.64 0 3.269 0.507 3.984 2.165 0.094 0.217 0.31 1.19 0.357 1.234 0.080 0.071 0.261 0.099 0.477 0.099 0.415 0 0.962-0.103 1.168-0.198 1.497-0.68 1.799-2.739 0.518-3.79z"></path>
</symbol>
<symbol id="icon-Icon-1" viewBox="0 0 32 32">
<path fill="none" stroke="#fefeff" style="stroke: var(--color1, #fefeff)" stroke-linejoin="round" stroke-linecap="round" stroke-miterlimit="4" stroke-width="2.9091" d="M20.364 2.12c-1.377-0.433-2.843-0.666-4.364-0.666-8.033 0-14.545 6.512-14.545 14.545s6.512 14.545 14.545 14.545c8.033 0 14.545-6.512 14.545-14.545 0-2.495-0.628-4.843-1.735-6.895M23.273 6.909h0.007M13.818 30.383l0-3.205c0-0.174 0.062-0.341 0.175-0.473l3.616-4.218c0.297-0.347 0.205-0.878-0.191-1.105l-4.155-2.374c-0.113-0.064-0.206-0.158-0.271-0.271l-2.708-4.746c-0.141-0.247-0.413-0.389-0.696-0.364l-8.040 0.716M29.091 7.273c0 3.213-2.909 5.818-5.818 8.727-2.909-2.909-5.818-5.514-5.818-8.727s2.605-5.818 5.818-5.818c3.213 0 5.818 2.605 5.818 5.818zM23.636 6.909c0 0.201-0.163 0.364-0.364 0.364s-0.364-0.163-0.364-0.364c0-0.201 0.163-0.364 0.364-0.364s0.364 0.163 0.364 0.364z"></path>
</symbol>
<symbol id="icon-Icon-2" viewBox="0 0 32 32">
<path fill="none" stroke="#fefeff" style="stroke: var(--color1, #fefeff)" stroke-linejoin="round" stroke-linecap="round" stroke-miterlimit="4" stroke-width="2.9091" d="M3.51 14.174c-0.866-0.337-1.299-0.505-1.425-0.748-0.11-0.21-0.11-0.461-0-0.671 0.126-0.243 0.559-0.412 1.424-0.749l24.564-9.586c0.781-0.305 1.172-0.457 1.422-0.374 0.217 0.072 0.387 0.243 0.459 0.459 0.084 0.25-0.069 0.64-0.374 1.422l-9.586 24.564c-0.338 0.866-0.507 1.298-0.75 1.424-0.21 0.109-0.461 0.109-0.671-0-0.243-0.126-0.411-0.559-0.748-1.425l-3.823-9.83c-0.068-0.176-0.103-0.264-0.155-0.338-0.047-0.066-0.104-0.123-0.17-0.17-0.074-0.053-0.162-0.087-0.338-0.155l-9.83-3.823z"></path>
</symbol>
<symbol id="icon-Icon-3" viewBox="0 0 43 32">
<path fill="none" stroke="#fefeff" style="stroke: var(--color1, #fefeff)" stroke-linejoin="round" stroke-linecap="round" stroke-miterlimit="4" stroke-width="3.5556" d="M21.333 29.333h0.018M40.545 10.135c-5.061-4.638-11.806-7.468-19.212-7.468s-14.151 2.83-19.212 7.468M8.412 16.432c3.446-3.035 7.968-4.876 12.921-4.876s9.475 1.841 12.921 4.876M27.908 22.711c-1.812-1.42-4.094-2.267-6.575-2.267-2.518 0-4.832 0.873-6.657 2.332"></path>
</symbol>
<symbol id="icon-Icon-4" viewBox="0 0 32 32">
<path fill="none" stroke="#fefeff" style="stroke: var(--color1, #fefeff)" stroke-linejoin="round" stroke-linecap="round" stroke-miterlimit="4" stroke-width="3.2" d="M30.4 25.6v-9.6c0-7.953-6.447-14.4-14.4-14.4s-14.4 6.447-14.4 14.4v9.6M5.6 30.4c-2.209 0-4-1.791-4-4v-3.2c0-2.209 1.791-4 4-4s4 1.791 4 4v3.2c0 2.209-1.791 4-4 4zM26.4 30.4c-2.209 0-4-1.791-4-4v-3.2c0-2.209 1.791-4 4-4s4 1.791 4 4v3.2c0 2.209-1.791 4-4 4z"></path>
</symbol>
<symbol id="icon-Icon-5" viewBox="0 0 32 32">
<path fill="none" stroke="#f04438" style="stroke: var(--color3, #f04438)" stroke-linejoin="round" stroke-linecap="round" stroke-miterlimit="4" stroke-width="2" d="M16 10.667v5.333M16 21.334h0.013M29.334 16c0 7.364-5.969 13.333-13.333 13.333s-13.333-5.969-13.333-13.333c0-7.364 5.97-13.333 13.333-13.333s13.333 5.97 13.333 13.333z"></path>
</symbol>
<symbol id="icon-Vector" viewBox="0 0 38 32">
<path fill="none" stroke="#fefeff" style="stroke: var(--color1, #fefeff)" stroke-linejoin="round" stroke-linecap="round" stroke-miterlimit="4" stroke-width="3.7647" d="M9.412 11.294l9.412-9.412h16.941M8.471 3.765l-6.588 6.588M17.546 23.425c1.347-1.769 2.386-4.216 2.947-5.543 0.983 1.327 3.115 4.657 3.789 6.427 0.841 2.212-1.263 4.867-3.789 4.867s-4.631-3.539-2.947-5.752z"></path>
</symbol>
<symbol id="icon-icon-car-doors" viewBox="0 0 32 32">
<path fill="#fefeff" style="fill: var(--color1, #fefeff)" d="M23.852 11.999v5.394c1.491 1.386 3.027 2.742 4.524 4.128 0.351 0.324 1.347 1.148 1.524 1.492 0.417 0.813-0.557 1.655-1.419 1.218-1.536-1.319-2.995-2.721-4.5-4.072l-0.128-0.058v6.485c0 1.636-2.119 3.394-3.903 3.371-2.581-0.106-5.289 0.136-7.855 0-1.696-0.090-3.212-1.1-3.744-2.581-0.062-0.174-0.201-0.628-0.201-0.79v-6.485l-0.128 0.058-4.465 4.065c-0.985 0.487-2.035-0.565-1.317-1.397l5.91-5.394v-5.433l-0.128 0.058-4.492 4.079c-0.877 0.423-1.873-0.432-1.412-1.25 1.948-1.888 4.018-3.682 6.011-5.536 0.068-2.563-0.369-4.792 1.499-6.928 2.019-2.31 4.696-2.545 7.761-2.379 3.025 0.164 5.679 2.206 6.308 4.914 0.333 1.436 0.056 2.936 0.179 4.394l5.74 5.2c0.907 0.776 0.044 2.056-1.106 1.594-1.555-1.312-3.012-2.732-4.527-4.086l-0.128-0.058-0-0zM21.803 8.65c-0.041-1.714 0.29-3.303-0.818-4.803-1.476-1.997-3.859-2.083-6.285-1.935-2.122 0.129-3.956 1.568-4.396 3.466-0.241 1.040-0.040 2.208-0.106 3.272 0.881-0.656 1.898-1.072 3.048-1.131 1.938-0.1 4.026 0.043 5.97 0.046 0.978 0.121 1.83 0.528 2.587 1.085zM13.218 9.401c-1.828 0.216-2.922 1.765-3.023 3.356-0.175 2.762 0.137 5.677 0 8.455 0.083 0.899 0.665 1.797 1.731 1.887l8.151 0.002c1.029-0.091 1.652-0.967 1.728-1.85-0.159-2.803 0.205-5.791 0-8.572-0.118-1.592-1.327-3.181-3.179-3.291-1.753-0.105-3.642 0.073-5.409 0.013h0zM21.804 24.542c-0.545 0.236-1.073 0.398-1.683 0.43-2.706 0.142-5.56-0.112-8.282 0-0.581-0.038-1.121-0.206-1.641-0.43v1.928c0 0.862 1.161 1.567 2.025 1.618 2.456 0.146 5.083-0.115 7.557 0 0.878 0.042 2.025-0.852 2.025-1.657v-1.889l-0-0z"></path>
</symbol>
<symbol id="icon-luggage-01" viewBox="0 0 32 32">
<path fill="none" stroke="#fefeff" style="stroke: var(--color1, #fefeff)" stroke-linejoin="round" stroke-linecap="round" stroke-miterlimit="4" stroke-width="2" d="M10.666 29.334v-2.667M12.666 20v-10.667M21.333 29.334v-2.667M19.333 20v-10.667M11.733 26.667h8.533c2.24 0 3.36 0 4.216-0.436 0.753-0.383 1.364-0.995 1.748-1.748 0.436-0.856 0.436-1.976 0.436-4.216v-11.2c0-2.24 0-3.36-0.436-4.216-0.384-0.753-0.995-1.365-1.748-1.748-0.856-0.436-1.976-0.436-4.216-0.436h-8.533c-2.24 0-3.36 0-4.216 0.436-0.753 0.384-1.365 0.995-1.748 1.748-0.436 0.856-0.436 1.976-0.436 4.216v11.2c0 2.24 0 3.36 0.436 4.216 0.383 0.753 0.995 1.365 1.748 1.748 0.856 0.436 1.976 0.436 4.216 0.436z"></path>
</symbol>
<symbol id="icon-tabler_manual-gearbox" viewBox="0 0 32 32">
<path fill="none" stroke="#fefeff" style="stroke: var(--color1, #fefeff)" stroke-linejoin="round" stroke-linecap="round" stroke-miterlimit="4" stroke-width="2" d="M6.667 10.666c-0.707 0-1.386-0.281-1.886-0.781s-0.781-1.178-0.781-1.886c0-0.707 0.281-1.386 0.781-1.886s1.178-0.781 1.886-0.781c0.707 0 1.386 0.281 1.886 0.781s0.781 1.178 0.781 1.886c0 0.707-0.281 1.386-0.781 1.886s-1.178 0.781-1.886 0.781zM6.667 10.666v10.667M16 10.666c-0.707 0-1.386-0.281-1.886-0.781s-0.781-1.178-0.781-1.886c0-0.707 0.281-1.386 0.781-1.886s1.178-0.781 1.886-0.781c0.707 0 1.386 0.281 1.886 0.781s0.781 1.178 0.781 1.886c0 0.707-0.281 1.386-0.781 1.886s-1.178 0.781-1.886 0.781zM16 10.666v10.667M6.667 21.333c0.707 0 1.386 0.281 1.886 0.781s0.781 1.178 0.781 1.886c0 0.707-0.281 1.386-0.781 1.886s-1.178 0.781-1.886 0.781-1.386-0.281-1.886-0.781c-0.5-0.5-0.781-1.178-0.781-1.886s0.281-1.385 0.781-1.886c0.5-0.5 1.178-0.781 1.886-0.781zM16 21.333c0.707 0 1.386 0.281 1.886 0.781s0.781 1.178 0.781 1.886c0 0.707-0.281 1.386-0.781 1.886s-1.178 0.781-1.886 0.781-1.386-0.281-1.886-0.781c-0.5-0.5-0.781-1.178-0.781-1.886s0.281-1.385 0.781-1.886c0.5-0.5 1.178-0.781 1.886-0.781zM22.667 8c0 0.707 0.281 1.386 0.781 1.886s1.178 0.781 1.886 0.781c0.707 0 1.385-0.281 1.886-0.781s0.781-1.178 0.781-1.886-0.281-1.386-0.781-1.886c-0.5-0.5-1.178-0.781-1.886-0.781s-1.386 0.281-1.886 0.781c-0.5 0.5-0.781 1.178-0.781 1.886z"></path>
<path fill="none" stroke="#fefeff" style="stroke: var(--color1, #fefeff)" stroke-linejoin="round" stroke-linecap="round" stroke-miterlimit="4" stroke-width="2" d="M25.334 10.666v2.667c0 0.707-0.281 1.386-0.781 1.886s-1.178 0.781-1.886 0.781h-16"></path>
</symbol>
<symbol id="icon-users-01" viewBox="0 0 32 32">
<path fill="none" stroke="#fefeff" style="stroke: var(--color1, #fefeff)" stroke-linejoin="round" stroke-linecap="round" stroke-miterlimit="4" stroke-width="2" d="M29.334 28v-2.667c0-2.485-1.7-4.573-4-5.165M20.667 4.388c1.955 0.791 3.333 2.707 3.333 4.946s-1.379 4.154-3.333 4.946M22.667 28c0-2.485 0-3.728-0.406-4.708-0.541-1.307-1.58-2.345-2.886-2.886-0.98-0.406-2.223-0.406-4.708-0.406h-4c-2.485 0-3.728 0-4.708 0.406-1.307 0.541-2.345 1.58-2.886 2.886-0.406 0.98-0.406 2.223-0.406 4.708M18 9.333c0 2.946-2.388 5.333-5.333 5.333s-5.333-2.388-5.333-5.333c0-2.946 2.388-5.333 5.333-5.333s5.333 2.388 5.333 5.333z"></path>
</symbol>
<symbol id="icon-check-circle-broken" viewBox="0 0 30 32">
<path fill="none"  style="stroke: var(--color1, #fefeff)" stroke-linejoin="round" stroke-linecap="round" stroke-miterlimit="4" stroke-width="1.8824" d="M27.608 14.853v1.155c-0.002 2.706-0.878 5.339-2.498 7.507s-3.898 3.753-6.493 4.52c-2.595 0.767-5.369 0.675-7.907-0.263s-4.706-2.671-6.179-4.941c-1.473-2.27-2.172-4.956-1.994-7.656s1.224-5.271 2.982-7.328c1.758-2.057 4.134-3.491 6.774-4.087s5.401-0.324 7.873 0.778M27.608 5.961l-12.549 12.562-3.765-3.765"></path>
</symbol>

<symbol id="icon-OK" viewBox="0 0 43 32">
<path fill="none" stroke="#fefeff" style="stroke: var(--color1, #fefeff)" stroke-linejoin="round" stroke-linecap="round" stroke-miterlimit="4" stroke-width="7.1111" d="M37.926 5.333l-22.815 22.815-10.37-10.37"></path>
</symbol>

</defs>
</svg>
